<svg width="44" height="44" viewBox="0 0 44 44" fill="none" xmlns="http://www.w3.org/2000/svg">
<path fill-rule="evenodd" clip-rule="evenodd" d="M22 12.982C24.9371 12.982 25.285 12.9932 26.4449 13.0461C27.5174 13.0951 28.0998 13.2743 28.4875 13.4249C29.0009 13.6244 29.3674 13.8628 29.7523 14.2477C30.1372 14.6326 30.3756 14.9991 30.5751 15.5125C30.7257 15.9002 30.9049 16.4826 30.9539 17.5551C31.0068 18.715 31.018 19.0629 31.018 22C31.018 24.9372 31.0068 25.285 30.9539 26.4449C30.9049 27.5174 30.7257 28.0999 30.5751 28.4875C30.3756 29.0009 30.1372 29.3674 29.7523 29.7523C29.3674 30.1372 29.0009 30.3756 28.4875 30.5751C28.0998 30.7258 27.5174 30.905 26.4449 30.9539C25.2852 31.0068 24.9373 31.018 22 31.018C19.0627 31.018 18.7148 31.0068 17.5551 30.9539C16.4826 30.905 15.9001 30.7258 15.5125 30.5751C14.9991 30.3756 14.6326 30.1372 14.2477 29.7523C13.8628 29.3674 13.6244 29.0009 13.4249 28.4875C13.2742 28.0999 13.095 27.5174 13.0461 26.445C12.9932 25.285 12.982 24.9372 12.982 22C12.982 19.0629 12.9932 18.715 13.0461 17.5551C13.095 16.4826 13.2742 15.9002 13.4249 15.5125C13.6244 14.9991 13.8628 14.6326 14.2477 14.2477C14.6326 13.8628 14.9991 13.6244 15.5125 13.4249C15.9001 13.2743 16.4826 13.0951 17.555 13.0461C18.715 12.9932 19.0628 12.982 22 12.982M22 11C19.0125 11 18.638 11.0127 17.4647 11.0662C16.2938 11.1196 15.4943 11.3056 14.7945 11.5775C14.0712 11.8586 13.4577 12.2347 12.8462 12.8463C12.2347 13.4578 11.8586 14.0712 11.5775 14.7946C11.3055 15.4943 11.1196 16.2939 11.0662 17.4648C11.0126 18.638 11 19.0126 11 22C11 24.9875 11.0126 25.3621 11.0662 26.5353C11.1196 27.7062 11.3055 28.5057 11.5775 29.2055C11.8586 29.9288 12.2347 30.5423 12.8462 31.1538C13.4577 31.7653 14.0712 32.1414 14.7945 32.4225C15.4943 32.6945 16.2938 32.8804 17.4647 32.9338C18.638 32.9874 19.0125 33 22 33C24.9874 33 25.362 32.9874 26.5352 32.9338C27.7061 32.8804 28.5057 32.6945 29.2054 32.4225C29.9288 32.1414 30.5422 31.7653 31.1537 31.1538C31.7653 30.5423 32.1414 29.9288 32.4225 29.2055C32.6944 28.5057 32.8804 27.7062 32.9338 26.5353C32.9873 25.3621 33 24.9875 33 22C33 19.0126 32.9873 18.638 32.9338 17.4648C32.8804 16.2939 32.6944 15.4943 32.4225 14.7946C32.1414 14.0712 31.7653 13.4578 31.1537 12.8463C30.5422 12.2347 29.9288 11.8586 29.2054 11.5775C28.5057 11.3056 27.7061 11.1196 26.5352 11.0662C25.362 11.0127 24.9874 11 22 11M22.0218 16.369C18.8999 16.369 16.369 18.8999 16.369 22.0218C16.369 25.1438 18.8999 27.6746 22.0218 27.6746C25.1438 27.6746 27.6746 25.1438 27.6746 22.0218C27.6746 18.8999 25.1438 16.369 22.0218 16.369V16.369ZM22.0218 25.6912C19.9953 25.6912 18.3525 24.0483 18.3525 22.0218C18.3525 19.9953 19.9953 18.3525 22.0218 18.3525C24.0483 18.3525 25.6912 19.9953 25.6912 22.0218C25.6912 24.0483 24.0483 25.6912 22.0218 25.6912V25.6912ZM29.1587 16.1071C29.1587 16.8304 28.5725 17.4167 27.8492 17.4167C27.126 17.4167 26.5397 16.8304 26.5397 16.1071C26.5397 15.3839 27.126 14.7976 27.8492 14.7976C28.5725 14.7976 29.1587 15.3839 29.1587 16.1071" fill="black"/>
</svg>
