<svg width="44" height="44" viewBox="0 0 44 44" fill="none" xmlns="http://www.w3.org/2000/svg">
<path fill-rule="evenodd" clip-rule="evenodd" d="M22.726 29.9313C22.726 29.9313 23.1772 29.8821 23.4083 29.6384C23.6199 29.4152 23.6125 28.9939 23.6125 28.9939C23.6125 28.9939 23.5844 27.0267 24.5149 26.7362C25.432 26.4506 26.6095 28.6386 27.8591 29.48C28.8031 30.1161 29.5196 29.9769 29.5196 29.9769L32.859 29.9313C32.859 29.9313 34.6051 29.8257 33.7773 28.4778C33.7088 28.3674 33.2943 27.4804 31.2951 25.6584C29.2005 23.7512 29.4817 24.0597 32.003 20.7602C33.5388 18.751 34.1526 17.5243 33.9607 16.9998C33.7785 16.4981 32.6487 16.6313 32.6487 16.6313L28.8899 16.6541C28.8899 16.6541 28.6111 16.6169 28.4045 16.7382C28.2027 16.857 28.0719 17.1342 28.0719 17.1342C28.0719 17.1342 27.4776 18.6886 26.6841 20.0112C25.0101 22.8006 24.3413 22.9482 24.0674 22.7754C23.4303 22.3709 23.5893 21.1527 23.5893 20.2873C23.5893 17.5831 24.0075 16.4561 22.7762 16.1644C22.3678 16.0672 22.067 16.0036 21.0215 15.9928C19.6802 15.9796 18.5455 15.9976 17.9023 16.3061C17.4743 16.5113 17.1442 16.9698 17.3459 16.9962C17.5942 17.0286 18.1566 17.145 18.455 17.5435C18.8401 18.0584 18.8267 19.2131 18.8267 19.2131C18.8267 19.2131 19.048 22.3961 18.3095 22.791C17.8032 23.0623 17.1087 22.5089 15.6157 19.9776C14.8515 18.6814 14.2744 17.2483 14.2744 17.2483C14.2744 17.2483 14.1631 16.9806 13.9638 16.8366C13.7229 16.6625 13.3867 16.6085 13.3867 16.6085L9.81501 16.6313C9.81501 16.6313 9.27822 16.6457 9.08136 16.875C8.90651 17.0778 9.06791 17.4991 9.06791 17.4991C9.06791 17.4991 11.8643 23.9216 15.0313 27.1587C17.9353 30.1257 21.2318 29.9313 21.2318 29.9313H22.726Z" fill="black"/>
</svg>
