<svg width="44" height="44" viewBox="0 0 44 44" fill="none" xmlns="http://www.w3.org/2000/svg">
<path fill-rule="evenodd" clip-rule="evenodd" d="M22 11C15.9239 11 11 15.9253 11 22C11 28.0747 15.9239 33 22 33C28.0747 33 33 28.0747 33 22C33 15.9253 28.0747 11 22 11V11ZM22 31.625C20.647 31.625 19.3586 31.3459 18.1912 30.8412L23.2004 25.2065C23.3117 25.08 23.375 24.9178 23.375 24.75V22.6875C23.375 22.3094 23.0656 22 22.6875 22C20.2592 22 17.6976 19.4769 17.6729 19.4521C17.545 19.3215 17.3704 19.25 17.1875 19.25H14.4375C14.058 19.25 13.75 19.5594 13.75 19.9375V24.0625C13.75 24.3224 13.8957 24.5616 14.1281 24.6771L16.5 25.8624V29.8994C14.0057 28.1614 12.375 25.2711 12.375 22C12.375 20.5232 12.7064 19.1249 13.3018 17.875H15.8125C15.9954 17.875 16.17 17.8021 16.2979 17.6743L19.0479 14.9242C19.1771 14.795 19.25 14.6204 19.25 14.4375V12.7738C20.1217 12.5152 21.0444 12.375 22 12.375C23.5125 12.375 24.9439 12.7242 26.2157 13.3457C26.1277 13.4214 26.0397 13.4997 25.9586 13.5822C25.1776 14.3619 24.75 15.3972 24.75 16.4986C24.75 17.6 25.1776 18.6381 25.9586 19.415C26.7396 20.1974 27.7901 20.6236 28.8709 20.6236C28.9396 20.6236 29.0084 20.6222 29.0771 20.6181C29.3728 21.7319 29.909 24.629 28.897 28.6165C28.8874 28.655 28.8819 28.6935 28.8791 28.7306C27.1301 30.5154 24.6964 31.6236 22.0014 31.6236L22 31.625V31.625Z" fill="#fff"/>
</svg>
